<svg xmlns="http://www.w3.org/2000/svg" viewBox="0 0 120 120" width="100%" height="100%">
  <defs>
    <linearGradient id="lupaGlass" x1="0%" y1="0%" x2="100%" y2="100%">
      <stop offset="0%" stop-color="#00E5FF" stop-opacity="0.6"/>
      <stop offset="100%" stop-color="#00E5FF" stop-opacity="0.1"/>
    </linearGradient>
  </defs>

  <path d="M 60 115 C 60 115, 10 90, 10 40 C 10 20, 25 15, 60 15 C 95 15, 110 20, 110 40 C 110 90, 60 115, 60 115 Z" fill="#b92b6a" />
  <path d="M 60 110 C 60 110, 10 85, 10 35 C 10 15, 25 10, 60 10 C 95 10, 110 15, 110 35 C 110 85, 60 110, 60 110 Z" fill="#ff4b8b" />
  <path d="M 60 102 C 60 102, 18 80, 18 38 C 18 22, 30 18, 60 18 C 90 18, 102 22, 102 38 C 102 80, 60 102, 60 102 Z" fill="#1b2733" />
  
  <path d="M 30 100 C 30 80, 40 75, 60 75 C 80 75, 90 80, 90 100" fill="#2c3e50" />
  <circle cx="60" cy="55" r="28" fill="#2c3e50" />
  <path d="M 35 55 C 20 50, 15 65, 15 65 C 15 65, 25 60, 32 62 Z" fill="#2c3e50" />
  <path d="M 35 55 C 22 55, 18 70, 18 70 C 18 70, 28 65, 33 66 Z" fill="#1a252f" />
  <rect x="40" y="44" width="40" height="16" rx="8" fill="#fcdbb5" />
  
  <circle cx="48" cy="52" r="4" fill="#121e26" />
  <circle cx="46.5" cy="50.5" r="1.5" fill="#ffffff" />
  <circle cx="70" cy="52" r="5" fill="#121e26" />
  <circle cx="68" cy="50" r="2" fill="#ffffff" />
  
  <path d="M 82 68 L 95 85" stroke="#ffcd00" stroke-width="6" stroke-linecap="round" />
  <path d="M 86 68 L 98 84" stroke="#d4aa00" stroke-width="2" stroke-linecap="round" />
  <circle cx="72" cy="54" r="16" fill="none" stroke="#ffcd00" stroke-width="5" />
  <circle cx="72" cy="54" r="13.5" fill="url(#lupaGlass)" />
  <path d="M 64 45 A 11 11 0 0 1 78 45" fill="none" stroke="#ffffff" stroke-width="2" stroke-linecap="round" opacity="0.6"/>
</svg>